<svg xmlns="http://www.w3.org/2000/svg" viewBox="0 0 641.19 642.73"><defs><style>.cls-1{fill:#fff;}</style></defs><title>MySAsset 1</title><g id="Layer_2" data-name="Layer 2"><g id="Layer_1-2" data-name="Layer 1"><path class="cls-1" d="M270.56,642.23a28.92,28.92,0,0,1-27.13-18.5L181,463.74a30,30,0,0,0-13.57-15.44l-151.81-83a29,29,0,0,1-4.11-48.24L147,209.53A30.08,30.08,0,0,0,157.79,192L192.2,23.75A29.2,29.2,0,0,1,220.72.5a28.86,28.86,0,0,1,15.51,4.55L383.65,98.68a29.94,29.94,0,0,0,19.63,4.48L577.48,82.6a29.35,29.35,0,0,1,3.5-.21,29.06,29.06,0,0,1,27.91,36.77L563.54,283.77a30.06,30.06,0,0,0,1.77,20.76L637.9,459.06a29,29,0,0,1-24.75,41.36L438,509.69a30.09,30.09,0,0,0-18.59,7.74L290,634.69A28.89,28.89,0,0,1,270.56,642.23Z"/><path d="M220.72,1A28.42,28.42,0,0,1,236,5.47L383.38,99.11a30.57,30.57,0,0,0,20,4.55L577.54,83.1A28.54,28.54,0,0,1,608.4,119L563.06,283.64a30.51,30.51,0,0,0,1.8,21.1l72.59,154.53a28.55,28.55,0,0,1-24.33,40.65L438,509.19a30.59,30.59,0,0,0-18.9,7.87L289.65,634.32a28.52,28.52,0,0,1-45.76-10.77l-62.43-160a30.59,30.59,0,0,0-13.8-15.7l-151.81-83a28.55,28.55,0,0,1-4-47.41L147.34,209.92a30.55,30.55,0,0,0,10.94-17.81L192.69,23.85A28.7,28.7,0,0,1,220.72,1m0-1a29.55,29.55,0,0,0-29,23.65L157.3,191.91a29.55,29.55,0,0,1-10.58,17.23L11.18,316.67a29.55,29.55,0,0,0,4.19,49.07l151.81,83a29.59,29.59,0,0,1,13.35,15.18l62.43,160a29.53,29.53,0,0,0,47.37,11.15L419.73,517.8A29.54,29.54,0,0,1,438,510.19l175.17-9.27a29.55,29.55,0,0,0,25.18-42.07l-72.6-154.54A29.59,29.59,0,0,1,564,283.9l45.35-164.6A29.56,29.56,0,0,0,581,81.89a28.71,28.71,0,0,0-3.56.22l-174.2,20.55a28.69,28.69,0,0,1-3.46.21,29.59,29.59,0,0,1-15.85-4.61L236.5,4.63A29.28,29.28,0,0,0,220.72,0Z"/></g></g></svg>